# Blender v2.79 (sub 7) OBJ File: ''
# www.blender.org
mtllib PULA.mtl
o PULA_ĞšÑƒĞ±
v -0.000000 -0.251462 -0.078448
v -0.000000 -0.251462 -0.386774
v 0.125731 -0.217773 -0.078448
v 0.125731 -0.217772 -0.386774
v 0.217772 -0.125731 -0.078448
v 0.217772 -0.125731 -0.386774
v 0.251462 -0.000000 -0.078448
v 0.251462 0.000000 -0.386774
v 0.217772 0.125731 -0.078448
v 0.217772 0.125731 -0.386774
v 0.125731 0.217772 -0.078448
v 0.125731 0.217772 -0.386774
v 0.000000 0.251462 -0.078448
v 0.000000 0.251462 -0.386774
v -0.125731 0.217772 -0.078448
v -0.125731 0.217773 -0.386774
v -0.217772 0.125731 -0.078448
v -0.217772 0.125731 -0.386774
v -0.251462 0.000000 -0.078448
v -0.251462 0.000000 -0.386774
v -0.217773 -0.125731 -0.078448
v -0.217773 -0.125731 -0.386774
v -0.125731 -0.217772 -0.078448
v -0.125731 -0.217772 -0.386774
v 0.088694 -0.153623 -0.737594
v -0.000000 -0.177388 -0.737594
v 0.153623 -0.088694 -0.737594
v 0.177388 0.000000 -0.737594
v 0.153623 0.088694 -0.737594
v 0.088694 0.153623 -0.737594
v 0.000000 0.177388 -0.737594
v -0.088694 0.153623 -0.737594
v -0.153623 0.088694 -0.737594
v -0.177388 0.000000 -0.737594
v -0.153623 -0.088694 -0.737594
v -0.088694 -0.153623 -0.737594
v 0.055985 -0.096969 -0.907790
v -0.000000 -0.111970 -0.907790
v 0.096969 -0.055985 -0.907790
v 0.111970 0.000000 -0.907790
v 0.096969 0.055985 -0.907790
v 0.055985 0.096969 -0.907790
v 0.000000 0.111970 -0.907790
v -0.055985 0.096969 -0.907790
v -0.096969 0.055985 -0.907790
v -0.111970 0.000000 -0.907790
v -0.096969 -0.055985 -0.907790
v -0.055985 -0.096969 -0.907790
v 0.044027 -0.076257 -0.969591
v -0.000000 -0.088054 -0.969591
v 0.076257 -0.044027 -0.969591
v 0.088054 0.000000 -0.969591
v 0.076257 0.044027 -0.969591
v 0.044027 0.076257 -0.969591
v 0.000000 0.088054 -0.969591
v -0.044027 0.076257 -0.969591
v -0.076257 0.044027 -0.969591
v -0.088054 0.000000 -0.969591
v -0.076257 -0.044027 -0.969591
v -0.044027 -0.076257 -0.969591
v 0.013032 -0.022573 -1.072422
v -0.000000 -0.026065 -1.072422
v 0.022573 -0.013032 -1.072422
v 0.026065 0.000000 -1.072422
v 0.022573 0.013033 -1.072422
v 0.013032 0.022573 -1.072422
v 0.000000 0.026065 -1.072422
v -0.013032 0.022573 -1.072422
v -0.022573 0.013033 -1.072422
v -0.026065 0.000000 -1.072422
v -0.022573 -0.013032 -1.072422
v -0.013033 -0.022573 -1.072422
v -0.000000 -0.234747 -0.058956
v 0.117374 -0.203297 -0.058956
v 0.203297 -0.117374 -0.058956
v 0.234747 -0.000000 -0.058956
v 0.203297 0.117373 -0.058956
v 0.117374 0.203297 -0.058956
v 0.000000 0.234747 -0.058956
v -0.117373 0.203297 -0.058956
v -0.203297 0.117374 -0.058956
v -0.234747 0.000000 -0.058956
v -0.203297 -0.117373 -0.058956
v -0.117374 -0.203297 -0.058956
v -0.000000 -0.234747 -0.029717
v 0.117374 -0.203297 -0.029717
v 0.203297 -0.117374 -0.029717
v 0.234747 -0.000000 -0.029717
v 0.203297 0.117373 -0.029717
v 0.117374 0.203297 -0.029717
v 0.000000 0.234747 -0.029717
v -0.117373 0.203297 -0.029717
v -0.203297 0.117374 -0.029717
v -0.234747 0.000000 -0.029717
v -0.203297 -0.117373 -0.029717
v -0.117374 -0.203297 -0.029717
v -0.000000 -0.254922 -0.010222
v 0.127461 -0.220769 -0.010222
v 0.220769 -0.127461 -0.010222
v 0.254922 -0.000000 -0.010222
v 0.220769 0.127461 -0.010222
v 0.127461 0.220769 -0.010222
v 0.000000 0.254922 -0.010222
v -0.127461 0.220769 -0.010222
v -0.220769 0.127461 -0.010222
v -0.254922 0.000000 -0.010222
v -0.220769 -0.127461 -0.010222
v -0.127461 -0.220769 -0.010222
v -0.000000 -0.254922 0.356900
v 0.127461 -0.220769 0.356900
v 0.220769 -0.127461 0.356900
v 0.254922 -0.000000 0.356900
v 0.220769 0.127461 0.356900
v 0.127461 0.220769 0.356900
v 0.000000 0.254922 0.356900
v -0.127461 0.220769 0.356900
v -0.220769 0.127461 0.356900
v -0.254922 0.000000 0.356900
v -0.220769 -0.127461 0.356900
v -0.127461 -0.220769 0.356900
v -0.000000 -0.186517 0.356900
v 0.093259 -0.161528 0.356900
v 0.161528 -0.093259 0.356900
v 0.186517 -0.000000 0.356900
v 0.161528 0.093258 0.356900
v 0.093259 0.161528 0.356900
v 0.000000 0.186517 0.356900
v -0.093258 0.161528 0.356900
v -0.161528 0.093259 0.356900
v -0.186517 0.000000 0.356900
v -0.161529 -0.093258 0.356900
v -0.093259 -0.161528 0.356900
v -0.000000 -0.112836 0.295883
v 0.056418 -0.097719 0.295883
v 0.097719 -0.056418 0.295883
v 0.112836 -0.000000 0.295883
v 0.097719 0.056418 0.295883
v 0.056418 0.097719 0.295883
v 0.000000 0.112836 0.295883
v -0.056418 0.097719 0.295883
v -0.097719 0.056418 0.295883
v -0.112836 0.000000 0.295883
v -0.097719 -0.056418 0.295883
v -0.056418 -0.097719 0.295883
vt 0.693857 0.500000
vt 0.479863 0.500000
vt 0.479863 0.630831
vt 0.693857 0.630831
vt 0.479863 0.726607
vt 0.693857 0.726607
vt 0.479863 0.761663
vt 0.693857 0.761663
vt 0.479863 0.726607
vt 0.693857 0.726607
vt 0.479863 0.630831
vt 0.693857 0.630831
vt 0.479863 0.500000
vt 0.693857 0.500000
vt 0.479863 0.369169
vt 0.693857 0.369169
vt 0.479863 0.273393
vt 0.693857 0.273393
vt 0.479863 0.238337
vt 0.693857 0.238337
vt 0.479863 0.273393
vt 0.693857 0.273393
vt 0.236377 0.500000
vt 0.236377 0.407708
vt 0.479863 0.369168
vt 0.693857 0.369168
vt 0.707386 0.288456
vt 0.707386 0.377865
vt 0.236377 0.500000
vt 0.236377 0.407708
vt 0.118253 0.441744
vt 0.118253 0.500000
vt 0.236377 0.592292
vt 0.236377 0.659854
vt 0.236377 0.684584
vt 0.236377 0.592292
vt 0.236377 0.659854
vt 0.236377 0.340145
vt 0.236377 0.315416
vt 0.236377 0.340146
vt 0.118253 0.558256
vt 0.118253 0.600903
vt 0.075360 0.579350
vt 0.075360 0.545813
vt 0.118253 0.558256
vt 0.118253 0.600903
vt 0.118253 0.399097
vt 0.118253 0.383488
vt 0.118253 0.500000
vt 0.118253 0.616512
vt 0.118253 0.399097
vt 0.118253 0.441744
vt 0.003990 0.523489
vt 0.003990 0.513562
vt 0.075360 0.454187
vt 0.075360 0.500000
vt 0.075360 0.545813
vt 0.075360 0.579350
vt 0.075360 0.420650
vt 0.075360 0.408374
vt 0.075360 0.500000
vt 0.075360 0.591626
vt 0.075360 0.420650
vt 0.075360 0.454187
vt 0.003990 0.513562
vt 0.003990 0.500000
vt 0.003990 0.486439
vt 0.003990 0.476511
vt 0.003990 0.472878
vt 0.003990 0.476511
vt 0.003990 0.486439
vt 0.003990 0.500000
vt 0.003990 0.527122
vt 0.003990 0.523489
vt 0.707386 0.711544
vt 0.707386 0.744270
vt 0.727679 0.744270
vt 0.727679 0.711544
vt 0.707386 0.500000
vt 0.707386 0.622135
vt 0.707386 0.711544
vt 0.707386 0.500000
vt 0.707386 0.377865
vt 0.707386 0.622135
vt 0.707386 0.288456
vt 0.707386 0.255730
vt 0.741209 0.765263
vt 0.741209 0.729725
vt 0.727679 0.288456
vt 0.727679 0.255730
vt 0.727679 0.377865
vt 0.727679 0.500000
vt 0.727679 0.711544
vt 0.727679 0.377865
vt 0.727679 0.622135
vt 0.727679 0.500000
vt 0.727679 0.288456
vt 0.727679 0.622135
vt 0.741209 0.632631
vt 0.741209 0.500000
vt 0.996010 0.500000
vt 0.996010 0.632631
vt 0.741209 0.270275
vt 0.741209 0.234737
vt 0.741209 0.367369
vt 0.741209 0.729725
vt 0.741209 0.367369
vt 0.741209 0.632631
vt 0.741209 0.500000
vt 0.741209 0.270275
vt 0.996010 0.367369
vt 0.996010 0.270275
vt 0.996010 0.331919
vt 0.996010 0.402958
vt 0.996010 0.765263
vt 0.996010 0.729725
vt 0.996010 0.270275
vt 0.996010 0.234737
vt 0.996010 0.729725
vt 0.996010 0.367369
vt 0.996010 0.632631
vt 0.996010 0.500000
vt 0.996010 0.500000
vt 0.996010 0.597042
vt 0.953661 0.558706
vt 0.953661 0.500000
vt 0.996010 0.597042
vt 0.996010 0.668081
vt 0.996010 0.402958
vt 0.996010 0.668081
vt 0.996010 0.305917
vt 0.996010 0.500000
vt 0.996010 0.694083
vt 0.996010 0.331919
vt 0.953661 0.601682
vt 0.953661 0.617413
vt 0.953661 0.601682
vt 0.953661 0.558706
vt 0.953661 0.500000
vt 0.953661 0.441294
vt 0.953661 0.398318
vt 0.953661 0.382587
vt 0.953661 0.398318
vt 0.953661 0.441294
vn 0.0000 -0.9441 0.3297
vn 0.0000 -0.9948 -0.1021
vn 0.4974 -0.8615 -0.1021
vn 0.4720 -0.8176 0.3297
vn 0.8615 -0.4974 -0.1021
vn 0.8176 -0.4720 0.3297
vn 0.9948 0.0000 -0.1021
vn 0.9441 0.0000 0.3297
vn 0.8615 0.4974 -0.1021
vn 0.8176 0.4720 0.3297
vn 0.4974 0.8615 -0.1021
vn 0.4720 0.8176 0.3297
vn 0.0000 0.9948 -0.1021
vn 0.0000 0.9441 0.3297
vn -0.4974 0.8615 -0.1021
vn -0.4720 0.8176 0.3297
vn -0.8615 0.4974 -0.1021
vn -0.8176 0.4720 0.3297
vn -0.9948 0.0000 -0.1021
vn -0.9441 0.0000 0.3297
vn -0.8615 -0.4974 -0.1021
vn -0.8176 -0.4720 0.3297
vn 0.0000 0.9600 -0.2801
vn -0.4800 0.8314 -0.2801
vn -0.4974 -0.8615 -0.1021
vn -0.4720 -0.8176 0.3297
vn -0.8055 0.4651 0.3672
vn -0.4651 0.8055 0.3672
vn 0.0000 -0.9600 -0.2801
vn -0.4800 -0.8314 -0.2801
vn -0.4665 -0.8080 -0.3598
vn 0.0000 -0.9330 -0.3598
vn 0.4800 0.8314 -0.2801
vn 0.8314 0.4800 -0.2801
vn 0.9600 0.0000 -0.2801
vn 0.4800 -0.8314 -0.2801
vn 0.8314 -0.4800 -0.2801
vn -0.8314 -0.4800 -0.2801
vn -0.9600 0.0000 -0.2801
vn -0.8314 0.4800 -0.2801
vn 0.4665 0.8080 -0.3598
vn 0.8080 0.4665 -0.3598
vn 0.7799 0.4503 -0.4347
vn 0.4503 0.7799 -0.4347
vn 0.4665 -0.8080 -0.3598
vn 0.8080 -0.4665 -0.3598
vn -0.8080 0.4665 -0.3598
vn -0.9330 0.0000 -0.3598
vn 0.0000 0.9330 -0.3598
vn 0.9330 0.0000 -0.3598
vn -0.8080 -0.4665 -0.3598
vn -0.4665 0.8080 -0.3598
vn 0.4754 0.2745 -0.8358
vn 0.2745 0.4754 -0.8358
vn -0.4503 -0.7799 -0.4347
vn 0.0000 -0.9006 -0.4347
vn 0.4503 -0.7799 -0.4347
vn 0.7799 -0.4503 -0.4347
vn -0.7799 0.4503 -0.4347
vn -0.9006 0.0000 -0.4347
vn 0.0000 0.9006 -0.4347
vn 0.9006 0.0000 -0.4347
vn -0.7799 -0.4503 -0.4347
vn -0.4503 0.7799 -0.4347
vn 0.2745 -0.4754 -0.8358
vn 0.0000 -0.5489 -0.8358
vn -0.2745 -0.4754 -0.8358
vn -0.4754 -0.2745 -0.8358
vn -0.5489 0.0000 -0.8358
vn -0.4754 0.2745 -0.8358
vn -0.2745 0.4754 -0.8358
vn 0.0000 0.5489 -0.8358
vn 0.5489 0.0000 -0.8358
vn 0.4754 -0.2745 -0.8358
vn 0.8055 -0.4651 0.3672
vn 0.9301 0.0000 0.3672
vn 0.9094 0.0000 -0.4158
vn 0.7876 -0.4547 -0.4158
vn 0.0000 0.9301 0.3672
vn 0.4651 0.8055 0.3672
vn 0.8055 0.4651 0.3672
vn 0.0000 -0.9301 0.3672
vn -0.4651 -0.8055 0.3672
vn 0.4651 -0.8055 0.3672
vn -0.8055 -0.4651 0.3672
vn -0.9301 0.0000 0.3672
vn 0.9293 0.0000 -0.3692
vn 0.8048 -0.4647 -0.3692
vn -0.7876 -0.4547 -0.4158
vn -0.9094 0.0000 -0.4158
vn -0.4547 0.7876 -0.4158
vn 0.0000 0.9094 -0.4158
vn 0.7876 0.4547 -0.4158
vn -0.4547 -0.7876 -0.4158
vn 0.4547 -0.7876 -0.4158
vn 0.0000 -0.9094 -0.4158
vn -0.7876 0.4547 -0.4158
vn 0.4547 0.7876 -0.4158
vn 0.4647 0.8048 -0.3692
vn 0.0000 0.9293 -0.3692
vn 0.0000 0.7571 0.6532
vn 0.3786 0.6557 0.6532
vn -0.8048 -0.4647 -0.3692
vn -0.9293 0.0000 -0.3692
vn -0.4647 0.8048 -0.3692
vn 0.8048 0.4647 -0.3692
vn -0.4647 -0.8048 -0.3692
vn 0.4647 -0.8048 -0.3692
vn 0.0000 -0.9293 -0.3692
vn -0.8048 0.4647 -0.3692
vn -0.3786 0.6557 0.6532
vn -0.6557 0.3786 0.6532
vn 0.2487 -0.1436 0.9579
vn 0.1436 -0.2487 0.9579
vn 0.7571 0.0000 0.6532
vn 0.6557 -0.3786 0.6532
vn -0.6557 -0.3786 0.6532
vn -0.7571 0.0000 0.6532
vn 0.6557 0.3786 0.6532
vn -0.3786 -0.6557 0.6532
vn 0.3786 -0.6557 0.6532
vn 0.0000 -0.7571 0.6532
vn 0.0000 0.2872 0.9579
vn -0.1436 0.2487 0.9579
vn -0.1935 0.3351 0.9221
vn 0.0000 0.3869 0.9221
vn -0.1436 -0.2487 0.9579
vn -0.2487 -0.1436 0.9579
vn 0.1436 0.2487 0.9579
vn -0.2487 0.1436 0.9579
vn 0.2872 0.0000 0.9579
vn 0.0000 -0.2872 0.9579
vn -0.2872 0.0000 0.9579
vn 0.2487 0.1436 0.9579
vn -0.3351 0.1935 0.9221
vn -0.3869 0.0000 0.9221
vn -0.3351 -0.1935 0.9221
vn -0.1935 -0.3351 0.9221
vn 0.0000 -0.3869 0.9221
vn 0.1935 -0.3351 0.9221
vn 0.3351 -0.1935 0.9221
vn 0.3869 0.0000 0.9221
vn 0.3351 0.1935 0.9221
vn 0.1935 0.3351 0.9221
usemtl PULA
s 1
f 1/1/1 2/2/2 4/3/3 3/4/4
f 3/4/4 4/3/3 6/5/5 5/6/6
f 5/6/6 6/5/5 8/7/7 7/8/8
f 7/8/8 8/7/7 10/9/9 9/10/10
f 9/10/10 10/9/9 12/11/11 11/12/12
f 11/12/12 12/11/11 14/13/13 13/14/14
f 13/14/14 14/13/13 16/15/15 15/16/16
f 15/16/16 16/15/15 18/17/17 17/18/18
f 17/18/18 18/17/17 20/19/19 19/20/20
f 19/20/20 20/19/19 22/21/21 21/22/22
f 16/15/15 14/13/13 31/23/23 32/24/24
f 21/22/22 22/21/21 24/25/25 23/26/26
f 23/26/26 24/25/25 2/2/2 1/1/1
f 15/16/16 17/18/18 81/27/27 80/28/28
f 26/29/29 36/30/30 48/31/31 38/32/32
f 14/13/13 12/11/11 30/33/33 31/23/23
f 12/11/11 10/9/9 29/34/34 30/33/33
f 10/9/9 8/7/7 28/35/35 29/34/34
f 2/2/2 24/25/25 36/30/30 26/29/29
f 4/3/3 2/2/2 26/29/29 25/36/36
f 8/7/7 6/5/5 27/37/37 28/35/35
f 24/25/25 22/21/21 35/38/38 36/30/30
f 6/5/5 4/3/3 25/36/36 27/37/37
f 22/21/21 20/19/19 34/39/39 35/38/38
f 20/19/19 18/17/17 33/40/40 34/39/39
f 18/17/17 16/15/15 32/24/24 33/40/40
f 42/41/41 41/42/42 53/43/43 54/44/44
f 27/37/37 25/36/36 37/45/45 39/46/46
f 34/39/39 33/40/40 45/47/47 46/48/48
f 31/23/23 30/33/33 42/41/41 43/49/49
f 28/35/35 27/37/37 39/46/46 40/50/50
f 35/38/38 34/39/39 46/48/48 47/51/51
f 32/24/24 31/23/23 43/49/49 44/52/52
f 29/34/34 28/35/35 40/50/50 41/42/42
f 36/30/30 35/38/38 47/51/51 48/31/31
f 25/36/36 26/29/29 38/32/32 37/45/45
f 33/40/40 32/24/24 44/52/52 45/47/47
f 30/33/33 29/34/34 41/42/42 42/41/41
f 54/44/44 53/43/43 65/53/53 66/54/54
f 38/32/32 48/31/31 60/55/55 50/56/56
f 39/46/46 37/45/45 49/57/57 51/58/58
f 46/48/48 45/47/47 57/59/59 58/60/60
f 43/49/49 42/41/41 54/44/44 55/61/61
f 40/50/50 39/46/46 51/58/58 52/62/62
f 47/51/51 46/48/48 58/60/60 59/63/63
f 44/52/52 43/49/49 55/61/61 56/64/64
f 41/42/42 40/50/50 52/62/62 53/43/43
f 48/31/31 47/51/51 59/63/63 60/55/55
f 37/45/45 38/32/32 50/56/56 49/57/57
f 45/47/47 44/52/52 56/64/64 57/59/59
f 61/65/65 62/66/66 72/67/67 71/68/68 70/69/69 69/70/70 68/71/71 67/72/72 66/54/54 65/53/53 64/73/73 63/74/74
f 50/56/56 60/55/55 72/67/67 62/66/66
f 51/58/58 49/57/57 61/65/65 63/74/74
f 58/60/60 57/59/59 69/70/70 70/69/69
f 55/61/61 54/44/44 66/54/54 67/72/72
f 52/62/62 51/58/58 63/74/74 64/73/73
f 59/63/63 58/60/60 70/69/69 71/68/68
f 56/64/64 55/61/61 67/72/72 68/71/71
f 53/43/43 52/62/62 64/73/73 65/53/53
f 60/55/55 59/63/63 71/68/68 72/67/67
f 49/57/57 50/56/56 62/66/66 61/65/65
f 57/59/59 56/64/64 68/71/71 69/70/70
f 75/75/75 76/76/76 88/77/77 87/78/78
f 13/14/14 15/16/16 80/28/28 79/79/79
f 11/12/12 13/14/14 79/79/79 78/80/80
f 9/10/10 11/12/12 78/80/80 77/81/81
f 7/8/8 9/10/10 77/81/81 76/76/76
f 23/26/26 1/1/1 73/82/82 84/83/83
f 1/1/1 3/4/4 74/84/84 73/82/82
f 5/6/6 7/8/8 76/76/76 75/75/75
f 21/22/22 23/26/26 84/83/83 83/85/85
f 3/4/4 5/6/6 75/75/75 74/84/84
f 19/20/20 21/22/22 83/85/85 82/86/86
f 17/18/18 19/20/20 82/86/86 81/27/27
f 87/78/78 88/77/77 100/87/87 99/88/88
f 82/86/86 83/85/85 95/89/89 94/90/90
f 79/79/79 80/28/28 92/91/91 91/92/92
f 76/76/76 77/81/81 89/93/93 88/77/77
f 83/85/85 84/83/83 96/94/94 95/89/89
f 73/82/82 74/84/84 86/95/95 85/96/96
f 80/28/28 81/27/27 93/97/97 92/91/91
f 77/81/81 78/80/80 90/98/98 89/93/93
f 84/83/83 73/82/82 85/96/96 96/94/94
f 74/84/84 75/75/75 87/78/78 86/95/95
f 81/27/27 82/86/86 94/90/90 93/97/97
f 78/80/80 79/79/79 91/92/92 90/98/98
f 102/99/99 103/100/100 115/101/101 114/102/102
f 94/90/90 95/89/89 107/103/103 106/104/104
f 91/92/92 92/91/91 104/105/105 103/100/100
f 88/77/77 89/93/93 101/106/106 100/87/87
f 95/89/89 96/94/94 108/107/107 107/103/103
f 85/96/96 86/95/95 98/108/108 97/109/109
f 92/91/91 93/97/97 105/110/110 104/105/105
f 89/93/93 90/98/98 102/99/99 101/106/106
f 96/94/94 85/96/96 97/109/109 108/107/107
f 86/95/95 87/78/78 99/88/88 98/108/108
f 93/97/97 94/90/90 106/104/104 105/110/110
f 90/98/98 91/92/92 103/100/100 102/99/99
f 116/111/111 117/112/112 129/113/113 128/114/114
f 99/88/88 100/87/87 112/115/115 111/116/116
f 106/104/104 107/103/103 119/117/117 118/118/118
f 103/100/100 104/105/105 116/111/111 115/101/101
f 100/87/87 101/106/106 113/119/119 112/115/115
f 107/103/103 108/107/107 120/120/120 119/117/117
f 97/109/109 98/108/108 110/121/121 109/122/122
f 104/105/105 105/110/110 117/112/112 116/111/111
f 101/106/106 102/99/99 114/102/102 113/119/119
f 108/107/107 97/109/109 109/122/122 120/120/120
f 98/108/108 99/88/88 111/116/116 110/121/121
f 105/110/110 106/104/104 118/118/118 117/112/112
f 121/123/123 122/124/124 134/125/125 133/126/126
f 113/119/119 114/102/102 126/127/127 125/128/128
f 120/120/120 109/122/122 121/123/123 132/129/129
f 110/121/121 111/116/116 123/130/130 122/124/124
f 117/112/112 118/118/118 130/131/131 129/113/113
f 114/102/102 115/101/101 127/132/132 126/127/127
f 111/116/116 112/115/115 124/133/133 123/130/130
f 118/118/118 119/117/117 131/134/134 130/131/131
f 115/101/101 116/111/111 128/114/114 127/132/132
f 112/115/115 113/119/119 125/128/128 124/133/133
f 119/117/117 120/120/120 132/129/129 131/134/134
f 109/122/122 110/121/121 122/124/124 121/123/123
f 133/126/126 134/125/125 135/135/135 136/136/136 137/137/137 138/138/138 139/139/139 140/140/140 141/141/141 142/142/142 143/143/143 144/144/144
f 128/114/114 129/113/113 141/141/141 140/140/140
f 125/128/128 126/127/127 138/138/138 137/137/137
f 132/129/129 121/123/123 133/126/126 144/144/144
f 122/124/124 123/130/130 135/135/135 134/125/125
f 129/113/113 130/131/131 142/142/142 141/141/141
f 126/127/127 127/132/132 139/139/139 138/138/138
f 123/130/130 124/133/133 136/136/136 135/135/135
f 130/131/131 131/134/134 143/143/143 142/142/142
f 127/132/132 128/114/114 140/140/140 139/139/139
f 124/133/133 125/128/128 137/137/137 136/136/136
f 131/134/134 132/129/129 144/144/144 143/143/143
