# Blender v2.79 (sub 7) OBJ File: ''
# www.blender.org
mtllib штора.mtl
o штора_Плоскость.009
v -7.491796 6.627813 -4.135273
v -7.491796 6.627813 -0.546805
v -7.491796 6.627813 -2.341039
v -7.491796 6.627813 -1.443922
v -7.491796 6.627813 -3.238156
v -7.249940 1.230294 -4.135273
v -7.687243 6.619529 -0.995363
v -7.249940 1.230294 -0.702904
v -7.687243 6.619529 -2.789597
v -7.249940 1.230294 -2.341039
v -7.687243 6.619529 -1.892480
v -7.687243 6.619529 -3.686714
v -7.249940 1.230294 -1.520473
v -7.249940 1.230294 -3.238156
v -7.445386 1.222010 -2.789597
v -7.445386 1.222010 -3.686714
v -7.445387 1.222010 -1.122311
v -7.445387 1.222010 -1.913857
v -7.491796 6.627813 3.143649
v -7.491796 6.627813 -0.847904
v -7.491796 6.627813 1.342217
v -7.491796 6.627813 2.246532
v -7.491796 6.627813 0.226840
v -7.687242 6.619529 2.695091
v -7.052921 1.238644 -0.914689
v -7.687242 6.619529 0.812672
v -7.249939 1.230294 1.341025
v -7.687242 6.619529 1.797974
v -7.687242 6.619529 -0.335855
v -7.249939 1.230294 3.143649
v -7.249939 1.230294 2.246532
v -7.249939 1.230294 0.189485
v -7.445386 1.222010 0.798061
v -7.427997 1.222747 -0.392120
v -7.445386 1.222010 2.695091
v -7.445386 1.222010 1.797974
vt 0.811912 0.999412
vt 0.811912 0.000588
vt 0.874412 0.000588
vt 0.874412 0.999412
vt 0.749412 0.999412
vt 0.749412 0.000588
vt 0.936912 0.999412
vt 0.936912 0.000588
vt 0.999412 0.000588
vt 0.999412 0.999412
vt 0.561912 0.999412
vt 0.561912 0.000588
vt 0.624412 0.000588
vt 0.624412 0.999412
vt 0.499412 0.999412
vt 0.499412 0.000588
vt 0.686912 0.999412
vt 0.686912 0.000588
vt 0.311912 0.999412
vt 0.311912 0.000588
vt 0.374412 0.000588
vt 0.374412 0.999412
vt 0.249412 0.999412
vt 0.249412 0.000588
vt 0.436912 0.999412
vt 0.436912 0.000588
vt 0.499412 0.000588
vt 0.499412 0.999412
vt 0.061912 0.999412
vt 0.061912 0.000588
vt 0.124412 0.000588
vt 0.124412 0.999412
vt -0.000588 0.999412
vt -0.000588 0.000588
vt 0.186912 0.999412
vt 0.186912 0.000588
vn 0.9990 0.0447 0.0000
vn 0.9990 0.0443 0.0044
vn 0.9157 0.0410 0.3997
vn 0.9989 0.0464 -0.0016
vn 0.9989 0.0462 0.0108
vn 0.9991 0.0425 -0.0048
vn 0.9991 0.0425 0.0027
vn 0.9102 0.0515 -0.4109
vn 0.9989 0.0464 -0.0085
vn 0.9989 0.0464 -0.0064
vn 0.9989 0.0442 -0.0172
vn 0.9989 0.0442 -0.0161
vn 0.9989 0.0462 -0.0010
vn 0.9989 0.0462 0.0017
vn 0.9986 0.0450 0.0276
vn 0.9986 0.0450 0.0275
vn 0.9944 0.0533 0.0914
vn 0.9938 0.0533 0.0969
vn 0.8740 0.0511 0.4831
vn 0.9157 0.0410 -0.3997
vn 0.9990 0.0447 -0.0031
usemtl Материал.011
s 1
f 9/1/1 15/2/1 14/3/1 5/4/1
f 3/5/2 10/6/2 15/2/1 9/1/1
f 12/7/1 16/8/1 6/9/3 1/10/3
f 5/4/1 14/3/1 16/8/1 12/7/1
f 7/11/4 17/12/5 13/13/6 4/14/7
f 2/15/8 8/16/8 17/12/5 7/11/4
f 11/17/9 18/18/10 10/6/2 3/5/2
f 4/14/7 13/13/6 18/18/10 11/17/9
f 26/19/11 33/20/12 32/21/13 23/22/14
f 21/23/15 27/24/16 33/20/12 26/19/11
f 29/25/17 34/26/18 25/27/19 20/28/19
f 23/22/14 32/21/13 34/26/18 29/25/17
f 24/29/1 35/30/1 31/31/1 22/32/1
f 19/33/20 30/34/20 35/30/1 24/29/1
f 28/35/21 36/36/21 27/24/16 21/23/15
f 22/32/1 31/31/1 36/36/21 28/35/21
